<?xml version="1.0" encoding="iso-8859-1"?>
<!-- Generator: Adobe Illustrator 19.0.0, SVG Export Plug-In . SVG Version: 6.00 Build 0)  -->
<svg version="1.1" id="Layer_1" xmlns="http://www.w3.org/2000/svg" xmlns:xlink="http://www.w3.org/1999/xlink" x="0px" y="0px"
	 viewBox="0 0 512 512" style="enable-background:new 0 0 512 512;" xml:space="preserve">
<g>
	<g>
		<path d="M135.97,111.517c-4.337,0-8.494,1.722-11.561,4.788c-3.066,3.066-4.788,7.224-4.788,11.561v132.799h216.626V111.527
			L135.97,111.517z"/>
	</g>
</g>
<g>
	<g>
		<path d="M508.062,224.494l-71.527-83.427c-3.106-3.623-7.641-5.708-12.413-5.708l-55.176,0.004v141.65
			c0,9.029-7.321,16.349-16.349,16.349H119.621v49.047c0,9.029,7.319,16.349,16.349,16.349h47.66
			c7.078,24.084,29.368,41.724,55.715,41.724s48.634-17.64,55.715-41.724h43.546c7.078,24.084,29.368,41.724,55.715,41.724
			s48.634-17.64,55.715-41.724h45.616c9.028,0,16.349-7.32,16.349-16.349V235.135C512,231.232,510.604,227.458,508.062,224.494z
			 M239.345,367.784c-13.993,0-25.375-11.382-25.375-25.373c0-13.993,11.382-25.377,25.375-25.377
			c13.99,0,25.375,11.384,25.375,25.377C264.72,356.403,253.335,367.784,239.345,367.784z M419.696,342.425
			c-0.009,13.985-11.389,25.36-25.375,25.36c-13.993,0-25.375-11.382-25.375-25.373c0-13.993,11.382-25.377,25.375-25.377
			c13.986,0,25.366,11.377,25.375,25.362c0,0.004-0.002,0.009-0.002,0.013C419.693,342.415,419.696,342.419,419.696,342.425z"/>
	</g>
</g>
<g>
	<g>
		<path d="M16.351,218.789C7.323,218.788,0,226.109,0,235.137c0.002,9.029,7.321,16.35,16.349,16.35l70.572,0.001V218.79
			L16.351,218.789z"/>
	</g>
</g>
<g>
	<g>
		<path d="M86.921,153.393H70.848c-9.028,0.001-16.349,7.32-16.349,16.348c0,9.03,7.321,16.35,16.349,16.35h16.074L86.921,153.393z"
			/>
	</g>
</g>
<g>
	<g>
		<path d="M86.921,284.188H49.05c-9.028,0-16.349,7.319-16.349,16.349c0,9.028,7.321,16.348,16.349,16.348h37.873L86.921,284.188z"
			/>
	</g>
</g>
<g>
</g>
<g>
</g>
<g>
</g>
<g>
</g>
<g>
</g>
<g>
</g>
<g>
</g>
<g>
</g>
<g>
</g>
<g>
</g>
<g>
</g>
<g>
</g>
<g>
</g>
<g>
</g>
<g>
</g>
</svg>
